<?xml version="1.0" encoding="UTF-8"?>
<svg width="957px" height="854px" viewBox="0 0 957 854" version="1.1" xmlns="http://www.w3.org/2000/svg" xmlns:xlink="http://www.w3.org/1999/xlink">
    <!-- Generator: Sketch 49.2 (51160) - http://www.bohemiancoding.com/sketch -->
    <title>Elegant365 Logo</title>
    <desc>Created with Sketch.</desc>
    <defs></defs>
    <g id="Page-1" stroke="none" stroke-width="1" fill="none" fill-rule="evenodd">
        <g id="Group-2" transform="translate(-271.000000, -323.000000)">
            <g id="Elegant365-Logo" transform="translate(274.000000, 326.000000)">
                <g id="Group" fill-rule="nonzero">
                    <path d="M483.9,847 L483.4,846.8 C473.9,828.8 468.5,807.8 467.3,783.6 C467.1,780.1 467,776.6 467,773 C467,769.4 467.1,765.8 467.3,762.3 C468.5,737.7 474.1,716.3 484,698.1 C484,698.1 484,698.1 484,698.1 C484,698.1 484,698.1 484,698 C483.9,697.9 483.9,697.9 483.9,697.8 L483.8,697.6 L484.5,697.5 C484.5,697.5 484.5,697.5 484.5,697.5 C604,646.7 700.5,605.5 774,574 C877.7,529.6 937,504.1 949.5,498.6 C949.7,498.5 949.9,498.4 950.1,498.4 C950.1,498.4 950.1,498.4 950.2,498.4 C950.9,499.4 933.2,544.2 933.2,572.9 C933.2,602.1 938.9,627.1 950.2,647.9 L950.9,648 C951,648.1 951.1,648.2 951.1,648.4 C951.1,648.5 950.9,648.6 950.8,648.6 L950.7,648.6 L950.5,649 L484.3,846.9 C484.2,847 484.1,847.1 484.1,847.2 C484.1,847.3 484.1,847.3 484.1,847.3 C484.1,847.2 484,847.1 483.9,847 Z" id="Shape" fill="#FFFFFF"></path>
                    <path d="M483.8,697.6 C483.6,697.2 483.5,697 483.4,696.8 C472.5,676.2 467,651.7 467,623 C467,593.8 472.7,568.8 484,548 C483.9,547.9 483.9,547.9 483.9,547.8 L484.5,547.6 C604.2,496.8 700.7,455.7 774.3,424.4 L775,426 C763.7,446.8 758,471.8 758,501 C758,529 763.2,553.1 773.6,573.3 C582.2,655 485.8,696.7 484.5,697.5 C484.5,697.5 484.5,697.5 484.5,697.5 L483.8,697.6 Z" id="Shape" fill="#FFFFFF"></path>
                    <path d="M483.9,547.8 C483.8,547.5 483.6,547.1 483.4,546.8 C472.5,526.3 467,501.7 467,473 C467,471.6 467,470.3 467,469 C467,468.1 467,467.2 467.1,466.3 C467.2,463.2 467.4,460.1 467.7,457.1 L467.6,457.1 C469.3,434.6 474.8,414.9 484,398 L483.7,397.6 C483.8,397.6 484,397.5 484,397.4 L484,397.3 L484.1,397.3 C484.2,397.5 484.3,397.6 484.5,397.5 L950.3,199.6 L950.5,199.5 C950.5,199.6 950.4,199.7 950.3,199.7 C939.3,220.5 933.7,245.4 933.7,274.4 C933.7,303.4 939.2,328.3 950.3,349.1 C639.5,481.1 484.2,547.2 484.5,547.5 L483.9,547.8 Z" id="Shape" fill="#FFFFFF"></path>
                    <path d="M950.4,199 C950.5,199 950.6,199 950.7,199 C950.7,199 950.8,199 950.8,199 L950.7,199.1 C950.6,199.1 950.5,199 950.4,199.1 L774.5,273.8 C774.5,273.8 774.4,273.8 774.4,273.7 L774.5,273.6 L950.4,199 Z" id="Shape" fill="#E23E41"></path>
                    <path d="M775,426 C884.6,472.8 942.9,495.8 949.9,498.3 C949.8,498.3 949.7,498.4 949.6,498.4 C886.1,525.4 829.1,549.6 778.5,571.2 C776.9,571.9 775.2,572.6 773.6,573.3 C763.2,553.1 758,529 758,501 C758,471.8 763.7,446.8 775,426 Z" id="Shape" fill="#C31F30"></path>
                    <path d="M774.5,273.8 C774.5,273.8 774.5,273.8 774.5,273.8 C774.4,273.8 774.4,273.8 774.4,273.8 C774.4,273.8 774.5,273.8 774.5,273.8 Z" id="Shape" fill="#C51215"></path>
                    <path d="M774.4,273.8 C774.4,273.8 774.5,273.8 774.5,273.9 L597.9,348.9 L597.8,348.9 L597.9,348.9 L774.4,273.8 Z" id="Shape" fill="#C51215"></path>
                    <path d="M774.4,273.8 C770.4,272.1 766.4,270.4 762.2,268.6 C766.4,270.4 770.4,272.1 774.4,273.8 Z" id="Shape" fill="#C51215"></path>
                    <polygon id="Shape" fill="#920A0B" points="597.9 348.8 597.8 348.8 597.8 348.8 597.8 348.8"></polygon>
                    <polygon id="Shape" fill="#920A0B" points="597.8 348.8 597.8 348.8 597.7 348.8 597.7 348.7"></polygon>
                    <polygon id="Shape" fill="#920A0B" points="597.7 348.7 597.7 348.8 485.1 298.3"></polygon>
                    <polygon id="Shape" fill="#920A0B" points="485.1 298.3 597.7 348.8"></polygon>
                    <path d="M485,298.3 L483.4,300.1 C483.4,300.1 483.4,300.1 483.4,300.1 C442.9,317.3 405,333.4 369.9,348.4 C369.8,348.4 369.7,348.5 369.6,348.5 L193.5,273.8 C359.7,203.1 454.5,162.7 477.7,152.7 C478,152.6 478.2,152.5 478.3,152.4 C479.7,151.8 480.8,151.3 481.6,150.9 C481.7,150.8 481.8,150.8 481.9,150.7 C482.2,150.6 482.5,150.4 482.7,150.3 C483.1,150.1 483.3,150 483.3,150 C483.3,150 483.3,150 483.3,150 C598.1,198.7 688.1,237 752.1,264.2 C755.5,265.6 758.9,267.1 762.1,268.5 C766.3,270.3 770.3,272 774.3,273.7 L597.7,348.6 L597.6,348.6 L485,298.3 Z" id="Shape" fill="#C51215"></path>
                    <path d="M484.5,0.7 L950.6,198.6 L484.5,0.7 C484.3,0.6 484.2,0.5 484.2,0.4 L484.3,0.4 C484.3,0.5 484.4,0.6 484.5,0.7 Z" id="Shape" fill="#E23E41"></path>
                    <path d="M484.1,397.2 C484.1,397.1 484.2,397 484.3,396.9 L597.7,348.8 L597.8,348.8 L484.3,397 C484.2,397 484.1,397.2 484.1,397.2 C484.1,397.3 484.1,397.3 484.1,397.2 Z" id="Shape" fill="#920A0B"></path>
                    <path d="M484.1,397.2 C484.1,397.3 484.1,397.3 484.1,397.2 C484,397.3 484,397.2 484,397.2 C484,397.1 483.9,397 483.8,397 L370,348.7 C371.2,348.2 372.3,347.7 373.5,347.2 C436.3,320.5 472.2,305.1 481.1,301.1 C482.6,300.4 483.3,300.1 483.3,300.1 L485,298.3 L597.6,348.7 L484.2,396.8 C484.2,397 484.1,397.1 484.1,397.2 Z" id="Shape" fill="#920A0B"></path>
                    <path d="M483,696.7 C363,645.8 266.2,604.8 192.7,573.6 L369,498.7 C440.8,529.1 478.9,545.1 483.4,546.9 C483.6,547.2 483.7,547.5 483.9,547.8 C483.9,547.9 483.9,547.9 484,548 C472.7,568.8 467,593.8 467,623 C467,651.7 472.5,676.2 483.4,696.8 C483.3,696.8 483.2,696.7 483,696.7 Z" id="Shape" fill="#A10009"></path>
                    <path d="M483.8,397 C483.9,397 484,397.1 484,397.2 C483.9,397.1 483.9,397.1 483.8,397 Z" id="Shape" fill="#920A0B"></path>
                    <path d="M483.6,397.6 L417.7,369.6 L483.5,397.5 C483.6,397.5 483.7,397.6 483.7,397.6 L483.6,397.6 Z" id="Shape" fill="#820609"></path>
                    <path d="M483.3,846.8 C483.3,846.8 483.3,846.9 483.4,846.9 L17.7,649.1 L483.3,846.8 Z" id="Shape" fill="#B4060F"></path>
                    <path d="M484,698.1 C474.1,716.3 468.5,737.7 467.3,762.3 C468.5,737.7 474.1,716.3 484,698.1 C484,698.1 484,698.1 484,698.1 Z" id="Shape" fill="#B4060F"></path>
                    <path d="M467,473 C467,501.7 472.5,526.3 483.4,546.8 C467,539.9 452.1,533.5 438.5,527.8 C436.2,526.8 433.9,525.8 431.6,524.9 C430.6,524.5 429.6,524.1 428.6,523.6 C425.5,522.3 422.3,520.9 419.2,519.6 C414,517.4 408.8,515.2 403.7,513 C403.6,512.9 403.5,512.9 403.4,512.9 C391.9,508 380.6,503.2 369.5,498.5 L467.1,457.1 L467.6,457.1 C467.4,460.1 467.2,463.2 467.1,466.3 C467.1,467.2 467.1,468.1 467,469 C467,470.3 467,471.6 467,473 Z" id="Shape" fill="#78060A"></path>
                    <path d="M467.6,457.1 L467.7,457.1 C467.4,460.1 467.2,463.2 467.1,466.3 C467.2,463.2 467.4,460.1 467.6,457.1 Z" id="Shape" fill="#78060A"></path>
                    <path d="M467,457.1 L369.4,498.5 C300.6,469.3 241.9,444.4 193.2,423.8 C193.2,423.8 193.2,423.8 193.2,423.8 C265.3,393.2 323.9,368.3 369.1,349 L417.6,369.6 L483.5,397.6 L483.6,397.6 L483.9,398 C474.7,414.9 469.2,434.6 467.5,457.1 L467,457.1 Z" id="Shape" fill="#820609"></path>
                    <path d="M369,498.7 L192.6,573.6 C192.6,573.6 192.5,573.6 192.5,573.6 L192.6,573.6 L369,498.7 Z" id="Shape" fill="#B70A0F"></path>
                    <path d="M368.8,348.7 C368.8,348.7 368.7,348.7 368.7,348.7 L192.7,274.1 L192.6,274 C192.6,274 192.7,274 192.7,273.9 L368.8,348.7 Z" id="Shape" fill="#B70A0F"></path>
                    <path d="M369.2,349 C324,368.3 265.4,393.2 193.3,423.8 C193.3,423.8 193.3,423.8 193.3,423.8 C193.3,423.8 193.3,423.8 193.3,423.8 C265.3,393.2 323.9,368.2 369.2,349 Z" id="Shape" fill="#820609"></path>
                    <path d="M193.1,423.5 C222.2,411.1 254.9,397.2 291.1,381.8 C254.8,397.2 222.1,411.2 193.1,423.5 Z" id="Shape" fill="#B70A0F"></path>
                    <path d="M192.6,573.6 C192.5,573.6 192.5,573.6 192.5,573.6 C192.6,573.5 192.6,573.6 192.6,573.6 Z" id="Shape" fill="#B70A0F"></path>
                    <path d="M120,304.6 C140.9,295.7 164.9,285.5 192.1,273.8 L192.2,273.8 C164.9,285.5 140.9,295.7 120,304.6 Z" id="Shape" fill="#DD2137"></path>
                    <path d="M111.8,308.1 C114.4,307 117.1,305.8 119.9,304.7 C117.1,305.9 114.4,307 111.8,308.1 Z" id="Shape" fill="#DD2137"></path>
                    <path d="M103.9,311.5 C105.1,311 106.4,310.4 107.6,309.9 C106.4,310.4 105.2,310.9 103.9,311.5 Z" id="Shape" fill="#DD2137"></path>
                    <path d="M91.2,531 C68.1,521.2 44,510.9 18.8,500.3 C19.5,500.6 20.6,501 21.9,501.5 C22,501.6 22.2,501.6 22.3,501.7 C46.2,511.9 69.2,521.6 91.2,531 Z" id="Shape" fill="#DD2137"></path>
                    <path d="M69.9,221.3 L17.6,199.1 C17.6,199.1 17.7,199.1 17.7,199.1 L69.9,221.3 Z" id="Shape" fill="#E23E41"></path>
                    <path d="M192.2,423.8 C140.4,401.9 82.3,377.3 17.5,349.7 C17.7,349.8 18.2,350 19.1,350.3 C19.1,350.3 19.1,350.3 19.2,350.3 C83.7,377.8 141.4,402.2 192.2,423.8 C192.3,423.8 192.3,423.8 192.2,423.8 Z" id="Shape" fill="#DD2137"></path>
                    <path d="M19.2,500.4 C29.1,504.4 86.9,528.8 192.6,573.6 C95.1,532.3 38.3,508.3 22.4,501.7 C22.3,501.6 22.1,501.6 22,501.5 C21,501.1 20.1,500.7 19.2,500.4 Z" id="Shape" fill="#B70A0F"></path>
                    <path d="M43.1,337.4 C43.7,337.1 44.4,336.8 45.1,336.5 C44.4,336.9 43.8,337.1 43.1,337.4 Z" id="Shape" fill="#DD2137"></path>
                    <path d="M41.1,338.3 C41.7,338 42.4,337.8 43,337.5 C42.4,337.8 41.7,338 41.1,338.3 Z" id="Shape" fill="#DD2137"></path>
                    <path d="M37.2,340 C38.1,339.6 39,339.2 39.9,338.8 C39,339.2 38.1,339.6 37.2,340 Z" id="Shape" fill="#DD2137"></path>
                    <path d="M37.1,340 C27.3,344.2 21.2,346.9 18.7,348 C18.6,348 18.6,348.1 18.5,348.1 C18.4,348.1 18.3,348.2 18.2,348.2 C18,348.3 17.7,348.4 17.4,348.5 C17.8,348.3 24.3,345.5 37.1,340 Z" id="Shape" fill="#DD2137"></path>
                    <path d="M17.5,348.5 C17.7,348.4 18,348.3 18.3,348.2 C17.7,348.5 17.4,348.6 17.4,348.6 L17.2,348.7 L17.5,348.5 Z" id="Shape" fill="#DD2137"></path>
                    <path d="M17.6,499.7 C17.7,499.7 18.1,499.9 19,500.2 C19,500.2 19.1,500.2 19.3,500.3 C20.2,500.7 21.1,501.1 22,501.4 C20.7,500.9 19.7,500.4 18.9,500.2 C18.7,500.1 18.5,500 18.3,499.9 C18,499.9 17.8,499.8 17.6,499.7 Z" id="Shape" fill="#DD2137"></path>
                    <path d="M17.4,649.1 C17.4,649.1 17.4,649.2 17.4,649.1 L17.3,649.2 C17.4,649.1 17.4,649.1 17.4,649.1 Z" id="Shape" fill="#B4060F"></path>
                    <path d="M192.5,573.5 C86.8,528.7 29,504.3 19.1,500.3 C18.9,500.2 18.8,500.2 18.8,500.2 C18.3,500 17.8,499.8 17.3,499.6 L16.8,499.3 C16.8,499.2 16.9,499.2 16.9,499.1 C16.9,499.1 16.9,499.1 16.9,499 L17.4,498.7 C82.7,471 141.1,446.1 192.7,424.2 C264.9,454.6 323.6,479.5 368.9,498.7 L192.5,573.5 Z" id="Shape" fill="#B70A0F"></path>
                    <path d="M17.6,349.7 C82.4,377.3 140.5,401.9 192.3,423.8 C76.5,473.1 18.3,498 17.6,498.5 L17,498.8 C12.8,491 9.3,482.7 6.7,473.7 C6.7,473.7 6.7,473.7 6.7,473.7 C6.3,472.2 5.8,470.7 5.5,469.2 C1.9,455.4 0.2,440.4 0.2,424 C0.2,394.9 5.8,370 17,349.3 L17.6,349.6 C17.6,349.6 17.6,349.6 17.7,349.6 C18.3,349.8 18.8,350.1 19.4,350.3 C18.3,350 17.7,349.8 17.6,349.7 Z" id="Shape" fill="#DD2137"></path>
                    <path d="M16.8,499.4 C16.8,499.4 16.8,499.4 16.8,499.4 L17.4,499.6 C17.9,499.8 18.4,500 18.9,500.2 C18.1,499.9 17.7,499.7 17.5,499.7 C17.7,499.8 17.9,499.9 18.1,500 C17.6,499.8 17.3,499.7 17.3,499.7 L16.8,499.4 Z" id="Shape" fill="#DD2137"></path>
                    <path d="M16.9,348.9 C10.5,337.2 6,324.2 3.2,309.9 C2.7,307.5 2.3,305.1 2,302.6 C0.7,293.6 2.84217094e-14,284.1 2.84217094e-14,274.1 C2.84217094e-14,244.9 5.6,220 16.9,199.2 L17.2,199.4 C17.2,199.5 17.2,199.6 17.3,199.6 C17.3,199.7 17.4,199.7 17.4,199.7 L192.1,273.9 C164.9,285.5 140.8,295.8 120,304.7 C119.9,304.7 119.9,304.7 119.9,304.8 C117.2,306 114.5,307.1 111.8,308.2 C110.4,308.8 109,309.4 107.7,310 C106.4,310.5 105.2,311.1 104,311.6 C97.6,314.4 91.5,316.9 85.7,319.4 C84.6,319.9 83.5,320.3 82.5,320.8 C82.5,320.8 82.4,320.8 82.4,320.9 C80.8,321.6 79.2,322.3 77.6,322.9 C75.3,323.9 73,324.9 70.8,325.8 C69.6,326.3 68.4,326.8 67.3,327.3 C58.8,330.9 51.4,334.1 45.2,336.8 C44.5,337.1 43.8,337.4 43.2,337.7 C43.1,337.7 43.1,337.7 43.1,337.8 C42.4,338.1 41.8,338.3 41.2,338.6 C40.8,338.8 40.4,339 40.1,339.1 C39.2,339.5 38.2,339.9 37.4,340.3 C37.3,340.3 37.3,340.3 37.3,340.4 C24.5,345.9 18,348.7 17.7,348.9 L17.4,349.1 L16.9,348.9 Z" id="Shape" fill="#DD2137"></path>
                    <path d="M17,649 C16.9,648.9 16.9,648.7 16.8,648.6 L17.1,648.4 C17.1,648.4 17.1,648.3 17.1,648.3 C17.1,648.2 17.1,648.1 17.3,648 L192.2,573.8 C206.9,580 221,586 234.5,591.7 C238.6,593.4 242.6,595.1 246.5,596.8 C250.4,598.5 254.4,600.1 258.3,601.8 C263.4,604 268.5,606.1 273.5,608.2 C277.2,609.8 280.9,611.3 284.5,612.9 C411.7,666.8 478,694.8 483.3,696.9 C483.5,697.2 483.7,697.6 483.8,697.9 C483.8,698 483.8,698 483.9,698.1 C474,716.3 468.4,737.7 467.2,762.4 C467,765.9 466.9,769.4 466.9,773.1 C466.9,776.7 467,780.2 467.2,783.7 C468.4,807.9 473.8,828.9 483.3,846.9 L17.7,649.1 C17.6,649 17.5,649.1 17.5,649.1 C17.5,649.1 17.4,649.1 17.4,649.2 L17,649 Z" id="Shape" fill="#B4060F"></path>
                    <path d="M17.3,648 C17.1,648.1 17.1,648.2 17.1,648.3 C17.1,648.3 17.1,648.3 17.1,648.3 C17.1,648.3 17.1,648.3 17.1,648.2 C17.1,648.2 17.1,648.2 17.1,648.2 C17.1,648.1 17.2,648.1 17.3,648 Z" id="Shape" fill="#DD2137"></path>
                    <path d="M17.1,648.3 C17.1,648.3 17.1,648.4 17.1,648.3 C17.1,648.3 17.1,648.3 17.1,648.3 C17.1,648.2 17.1,648.3 17.1,648.3 C17.1,648.3 17.1,648.3 17.1,648.3 Z" id="Shape" fill="#DD2137"></path>
                    <path d="M17,199 C17,199 17,199.1 16.9,199.1 C16.9,199.1 16.9,199 17,199 Z" id="Shape" fill="#E23E41"></path>
                    <path d="M17.4,349.6 L16.8,349.3 C16.9,349.2 16.9,349.1 17,349 L16.9,348.9 L17.2,348.7 L17.4,348.6 C17.4,348.6 17.7,348.5 18.3,348.2 C18.4,348.2 18.5,348.1 18.6,348.1 C18.7,348.1 18.7,348.1 18.8,348 C83.5,320.6 141.3,296 192.4,274.2 C192.5,274.2 192.6,274.1 192.7,274.1 L192.8,274.2 L368.8,348.8 C343,359.8 318.7,370.1 295.8,379.9 C294.3,380.5 292.7,381.2 291.2,381.9 C254.9,397.3 222.2,411.2 193.2,423.6 C193.1,423.6 193,423.7 192.9,423.7 C77.6,374.9 19.2,350.2 17.4,349.6 C17.4,349.6 17.4,349.6 17.4,349.6 Z" id="Shape" fill="#B70A0F"></path>
                    <path d="M17,499 C17,499 17,499 17,499 L16.9,499 L17,499 Z" id="Shape" fill="#B70A0F"></path>
                    <path d="M17.2,198.5 C17.3,198.6 17.4,198.6 17.5,198.5 L483.7,0.7 C483.8,0.7 483.9,0.5 483.9,0.4 L484.2,0.4 C484.2,0.5 484.3,0.6 484.4,0.7 L950.6,198.6 L950.7,198.6 L950.8,199 C950.8,199 950.8,199 950.7,199 C950.6,199 950.5,199 950.4,199 L774.5,273.7 L774.4,273.8 C770.5,272.1 766.4,270.4 762.2,268.6 C758.9,267.2 755.6,265.8 752.2,264.3 C688.3,237.1 598.2,198.8 483.4,150.1 C483.4,150.1 483.4,150.1 483.4,150.1 C481.5,150.9 479.7,151.7 477.8,152.5 C475.9,153.3 474.1,154.1 472.2,154.9 C470.3,155.7 468.5,156.5 466.7,157.3 C354.4,204.9 263.1,243.7 193,273.5 L69.9,221.3 L17.7,199.1 C17.7,199.1 17.6,199.1 17.6,199.1 C17.4,199 17.3,199.1 17.2,199.3 L16.9,199.1 C17,199.1 17,199 17,199 L17.2,198.5 Z" id="Shape" fill="#E23E41"></path>
                    <path d="M16.8,648.6 C16.9,648.7 16.9,648.9 17,649 C16.9,648.9 16.8,648.7 16.8,648.6 Z" id="Shape" fill="#B4060F"></path>
                    <path d="M16.8,648.6 C5.6,627.9 0,603 0,574 C0,544.9 5.6,520 16.8,499.3 L16.9,499.3 C16.9,499.3 16.9,499.4 16.8,499.4 L17.4,499.7 C17.4,499.7 17.6,499.8 18.2,500 C18.4,500.1 18.6,500.2 18.8,500.3 C44,511 68.1,521.2 91.2,531 C95.7,532.9 100.1,534.8 104.5,536.6 C135.6,549.8 164.8,562.2 192.1,573.8 L17.3,648 C17.2,648.1 17.1,648.1 17.1,648.2 C17.1,648.2 17.1,648.2 17.1,648.2 C17.1,648.3 17.1,648.3 17.1,648.4 L16.8,648.6 Z" id="Shape" fill="#DD2137"></path>
                    <path d="M16.8,348.9 C10.5,337.2 6,324.2 3.2,309.8 C6,324.1 10.5,337.2 16.8,348.9 Z" id="Shape" fill="#DD2137"></path>
                    <path d="M2,302.5 C2.4,305 2.8,307.4 3.2,309.8 C2.8,307.4 2.4,305 2,302.5 Z" id="Shape" fill="#DD2137"></path>
                </g>
                <g id="Group" stroke="#000000" stroke-width="5">
                    <polyline id="Shape" points="17.3 648 17.3 648 192.1 573.8 192.1 573.8 192.5 573.6 192.5 573.5 192.6 573.5 369 498.7 369 498.7 369.4 498.5 369.5 498.5 467 457.1"></polyline>
                    <path d="M17.5,648.5 C17.4,648.6 17.2,648.5 17.1,648.3 C17.1,648.3 17.1,648.3 17.1,648.3 C17.1,648.3 17.1,648.3 17.1,648.2 C17.1,648.2 17.1,648.2 17.1,648.2 C17.1,648.1 17.2,648 17.3,647.9" id="Shape"></path>
                    <path d="M484.1,847.3 C484.1,847.3 484.1,847.3 484.1,847.3 C484.1,847.1 484.2,847 484.3,846.9 L950.4,649 L950.5,649 C950.6,649 950.7,649.1 950.8,649.2 C950.9,649.3 950.8,649.5 950.6,649.6 L484.5,847.5 C484.3,847.6 484.2,847.5 484.1,847.3 Z" id="Shape"></path>
                    <path d="M950.8,648 C950.9,648.1 951,648.2 951,648.4 C951,648.5 950.8,648.6 950.7,648.6 L950.6,648.6" id="Shape"></path>
                    <path d="M17.7,649.1 L483.3,846.8 L483.4,846.8 L483.9,847 C484,847.1 484.1,847.2 484.1,847.3 L484.1,847.4 C484.1,847.5 484,847.6 483.9,847.6 C483.8,847.6 483.8,847.6 483.8,847.6 C483.8,847.6 483.8,847.6 483.7,847.6 L17.4,649.7 C17.3,649.6 17.2,649.5 17.2,649.3 C17.2,649.3 17.2,649.2 17.3,649.2 C17.3,649.2 17.3,649.2 17.3,649.2 C17.3,649.2 17.4,649.2 17.4,649.1 C17.5,649.1 17.6,649.1 17.7,649.1" id="Shape"></path>
                    <path d="M17.5,498.5 C18.2,498 76.5,473.1 192.2,423.8 C222.1,411.1 254.8,397.2 291,381.8 C292.5,381.2 294,380.5 295.6,379.8 C318.5,370.1 342.9,359.7 368.7,348.8 C369.6,348.5 369.7,348.4 369.8,348.4 C405,333.4 442.8,317.4 483.3,300.1 C483.3,300.1 436.3,320.3 373.5,347.2 C372.3,347.7 371.2,348.2 370,348.7 C324,368.3 265.4,393.2 193.3,423.8 C141.1,445.9 82.8,470.8 17.5,498.5 C12.7,491 9.2,482.7 6.6,473.7" id="Shape"></path>
                    <path d="M950.1,498.4 C949.9,498.5 949.7,498.6 949.5,498.6 C937,504 877.7,529.5 774,574 C700.5,605.5 604,646.7 484.5,697.5" id="Shape"></path>
                    <path d="M484.5,697.5 C485.8,696.7 582.2,655 773.6,573.3 C775.2,572.6 776.8,571.9 778.5,571.2 C828.7,549.9 886.6,525.4 949.5,498.6" id="Shape"></path>
                    <path d="M949.9,498.3 L775,426" id="Shape"></path>
                    <polyline id="Shape" points="598 348.9 483 299 439 319"></polyline>
                    <path d="M17.5,499.7 C17.5,499.7 17.5,499.7 17.5,499.7 C17.5,499.7 17.6,499.7 17.5,499.7 C17.7,499.7 18.1,499.9 18.9,500.2 C18.9,500.2 19,500.2 19.2,500.3 C29.1,504.3 86.9,528.7 192.6,573.5 C192.6,573.5 192.7,573.5 192.7,573.5 C192.7,573.5 192.7,573.5 192.8,573.5 C266.2,604.8 363,645.7 483,696.7 C483.1,696.8 483.3,696.8 483.4,696.8" id="Shape"></path>
                    <path d="M483,696.7 C475.5,693.7 409.3,665.8 284.5,613 C280.9,611.5 277.2,609.9 273.5,608.3 C268.5,606.2 263.4,604 258.3,601.9 C254.4,600.3 250.5,598.6 246.5,596.9 C242.5,595.2 238.5,593.5 234.5,591.8 C220.9,586.1 206.8,580.1 192.2,573.9 C192.2,573.9 192.2,573.9 192.1,573.9 C164.8,562.3 135.6,549.9 104.4,536.7 C100,534.8 95.6,533 91.1,531.1 C68,521.3 43.9,511 18.7,500.4 C18.5,500.3 18.3,500.2 18.1,500.1 C17.9,500 17.7,499.9 17.5,499.8" id="Shape"></path>
                    <path d="M17.2,348.7 L17.5,348.5 C17.8,348.3 24.3,345.5 37.1,340 C37.1,340 37.2,340 37.2,339.9 C38.1,339.5 39,339.1 39.9,338.7 C40.2,338.6 40.6,338.4 41,338.2 C41.6,337.9 42.3,337.7 42.9,337.4 C42.9,337.4 43,337.4 43,337.3 C43.6,337 44.3,336.7 45,336.4 C51.3,333.7 58.6,330.6 67.1,326.9 C68.3,326.4 69.4,325.9 70.6,325.4 C72.8,324.5 75,323.5 77.4,322.5 C79,321.8 80.5,321.2 82.2,320.5 C82.3,320.5 82.3,320.5 82.3,320.4 C83.4,319.9 84.4,319.5 85.5,319 C91.2,316.5 97.3,314 103.8,311.2 C105,310.7 106.3,310.1 107.5,309.6 C108.8,309 110.2,308.4 111.6,307.8 C114.2,306.7 116.9,305.5 119.7,304.4 C119.7,304.4 119.8,304.4 119.8,304.3 C140.7,295.4 164.7,285.2 191.9,273.5 C192,273.5 192,273.5 192.1,273.4 C192.3,273.3 192.5,273.2 192.7,273.2 C192.8,273.2 192.8,273.1 192.9,273.1 C263,243.3 354.3,204.5 466.5,156.8 C468.3,156 470.2,155.2 472,154.4 C473.8,153.6 475.7,152.8 477.6,152 C479.5,151.2 481.3,150.4 483.2,149.6 C483.2,149.6 483.2,149.6 483.2,149.6 C598,198.3 688,236.6 752,263.8" id="Shape"></path>
                    <path d="M483.4,150.1 C483.3,150.1 483.1,150.2 482.8,150.4 C482.6,150.5 482.3,150.6 482,150.8 C481.9,150.8 481.8,150.9 481.7,151 C480.9,151.4 479.8,151.8 478.4,152.5 C478.3,152.6 478,152.7 477.8,152.8 C454.6,162.9 359.9,203.2 193.6,273.8 C193.6,273.8 193.5,273.8 193.5,273.9 C193.3,274 193.1,274.1 192.8,274.1 C192.8,274.1 192.7,274.1 192.7,274.2 C192.6,274.2 192.5,274.3 192.4,274.3 C141.3,296 83.4,320.6 18.8,348.1 C18.7,348.1 18.7,348.2 18.6,348.2 C18.5,348.2 18.4,348.3 18.3,348.3 C18.1,348.4 17.8,348.5 17.5,348.6" id="Shape"></path>
                    <path d="M950.3,349.2 C947.599997,350.6 888.899943,375.6 774.299837,424.4 C700.699768,455.7 604.199679,496.8 484.499134,547.6 C484.199567,547.3 639.499711,481.2 950.3,349.2" id="Shape"></path>
                    <path d="M774.7,273.9 C774.6,273.9 774.6,273.8 774.5,273.8 C774.5,273.8 774.5,273.8 774.5,273.8 C774.5,273.8 774.4,273.8 774.4,273.7 C770.5,272 766.4,270.3 762.2,268.5 C758.9,267.1 755.6,265.7 752.2,264.2 C688,237 597.7,198.1 483,149.4" id="Shape"></path>
                    <path d="M17.5,349.7 C17.5,349.7 17.5,349.7 17.5,349.7 C17.5,349.7 17.6,349.7 17.5,349.7 C17.7,349.8 18.3,350 19.2,350.3 C19.2,350.3 19.2,350.3 19.3,350.3 C29.3,354.4 87.1,378.7 192.8,423.6 C192.9,423.6 192.9,423.6 193,423.7 C193.1,423.7 193.2,423.8 193.3,423.8 C242.3,444.6 300.9,469.4 369.5,498.5 C369.6,498.5 369.6,498.5 369.7,498.6 C378.8,502.5 390.1,507.2 403.5,512.9 C403.6,513 403.7,513 403.8,513 C408.7,515.1 413.9,517.3 419.3,519.6 C422.3,520.9 425.5,522.2 428.7,523.6 C429.7,524 430.7,524.4 431.7,524.9 C434,525.9 436.3,526.8 438.6,527.8 C452.1,533.5 467.1,539.9 483.5,546.8 C479.1,545.1 441,529.1 369.2,498.7 C369.2,498.7 369.2,498.7 369.2,498.7 C323.9,479.5 265.2,454.7 193.1,424.1 C193,424.1 193,424 192.9,424 C192.7,423.9 192.6,423.9 192.4,423.8 C140.4,401.9 82.4,377.3 17.5,349.7" id="Shape"></path>
                    <path d="M17.2,198.5 C17.1,198.5 17.1,198.4 17.1,198.4 C17,198.2 17.1,198.1 17.3,198 L483.4,0.1 C483.6,-8.11850587e-16 483.7,0.1 483.8,0.3 L483.8,0.4 C483.8,0.5 483.7,0.6 483.6,0.7 L17.5,198.5 C17.4,198.6 17.3,198.6 17.2,198.5 Z" id="Shape"></path>
                    <path d="M484.1,397.3 C484.1,397.3 484.1,397.3 484.1,397.3 C484.1,397.1 484.2,397 484.3,396.9 L597.7,348.8 L597.8,348.8 L774.4,273.9 L774.5,273.8 L950.4,199.1 C950.5,199.1 950.6,199.1 950.7,199.1 C950.7,199.1 950.8,199.1 950.8,199.1 C950.8,199.1 950.8,199.2 950.8,199.2 C950.9,199.3 950.8,199.5 950.6,199.6 L950.5,199.7 L950.3,199.8 L484.5,397.5 C484.3,397.6 484.2,397.5 484.1,397.3 Z" id="Shape"></path>
                    <path d="M484.2,0.4 L484.2,0.3 C484.3,0.1 484.4,0.1 484.6,0.1 L950.8,198 C950.9,198.1 951,198.2 951,198.4 C951,198.5 950.8,198.6 950.7,198.6 L950.6,198.6 L484.4,0.7 C484.3,0.6 484.2,0.5 484.2,0.4 Z" id="Shape"></path>
                    <path d="M17.3,199.6 C17.3,199.5 17.3,199.4 17.3,199.4 C17.4,199.2 17.5,199.2 17.6,199.2 C17.6,199.2 17.7,199.2 17.7,199.2 L69.9,221.4 L192.9,273.7 L193,273.7 L193.4,273.8 L193.5,273.9 L369.6,348.6 L370,348.8 L483.8,397 C483.9,397 484,397.1 484,397.2 C484,397.2 484,397.3 484,397.3 L484,397.4 C484,397.5 483.8,397.6 483.7,397.6 L483.6,397.6 L417.7,369.6 L369.2,349 L368.8,348.8 L368.7,348.8 L192.7,274.2 L192.6,274.1 L192.2,273.9 L192.1,273.9 L17.4,199.7 C17.4,199.7 17.3,199.6 17.3,199.6 Z" id="Shape"></path>
                    <path d="M950.8,199 L950.7,199.1 C950.6,199.2 950.6,199.4 950.5,199.5 C950.5,199.6 950.4,199.7 950.3,199.7 C939.3,220.5 933.7,245.4 933.7,274.4 C933.7,303.4 939.2,328.3 950.3,349.1 C950.4,349.4 950.6,349.7 950.7,349.9" id="Shape"></path>
                    <path d="M950,498 C950.7,499 933,543.9 933,572.6 C933,601.8 938.7,626.8 950,647.6" id="Shape"></path>
                    <path d="M775,426 C763.7,446.8 758,471.8 758,501 C758,529 763.2,553.1 773.6,573.3 C773.7,573.5 773.8,573.8 774,574 C774.3,574.6 774.7,575.3 775,575.9" id="Shape"></path>
                    <path d="M17,199 C17,199 17,199.1 16.9,199.1 C5.6,219.9 0,244.8 0,274 C0,284 0.7,293.5 2,302.5 C2.4,305 2.8,307.4 3.2,309.8 C6,324.1 10.5,337.1 16.9,348.8 C16.9,348.8 16.9,348.8 16.9,348.8 L17,348.9" id="Shape"></path>
                    <path d="M484,398 C474.8,414.9 469.3,434.6 467.6,457.1 C467.4,460.1 467.2,463.2 467.1,466.3 C467.1,467.2 467,468.1 467,469 C467,470.3 467,471.7 467,473 C467,501.7 472.5,526.3 483.4,546.8 C483.6,547.1 483.8,547.5 483.9,547.8 C483.9,547.9 483.9,547.9 484,548" id="Shape"></path>
                    <path d="M17,349 C16.9,349.1 16.9,349.2 16.8,349.3 C5.6,370 0,394.9 0,424 C0,440.4 1.8,455.4 5.3,469.2 C5.7,470.7 6.1,472.2 6.5,473.7 C6.5,473.7 6.5,473.7 6.5,473.7 C9.1,482.7 12.6,491.1 16.8,498.9 L16.9,499" id="Shape"></path>
                    <path d="M484,548 C472.7,568.8 467,593.8 467,623 C467,651.7 472.5,676.2 483.4,696.8 C483.5,697 483.6,697.1 483.8,697.6 L483.9,697.8 C483.9,697.9 483.9,697.9 484,698" id="Shape"></path>
                    <path d="M17,499 C17,499 17,499 17,499 C16.9,499.1 16.9,499.2 16.8,499.3 C5.6,520 0,544.9 0,574 C0,603 5.6,627.9 16.8,648.6 C16.9,648.7 16.9,648.9 17,649" id="Shape"></path>
                    <path d="M485,697 C485,697 484,698 484,698 C474.1,716.3 468.5,737.7 467.3,762.3 C467.1,765.8 467,769.3 467,773 C467,776.6 467.1,780.1 467.3,783.6 C468.5,807.8 473.9,828.8 483.4,846.8 C483.5,847.1 483.7,847.3 483.8,847.6 C483.9,847.8 484,847.9 484,848.1" id="Shape"></path>
                </g>
            </g>
        </g>
    </g>
</svg>