<?xml version="1.0" encoding="UTF-8"?>
<svg width="1133px" height="1047px" viewBox="0 0 1133 1047" version="1.1" xmlns="http://www.w3.org/2000/svg" xmlns:xlink="http://www.w3.org/1999/xlink">
    <!-- Generator: Sketch 52.6 (67491) - http://www.bohemiancoding.com/sketch -->
    <title>Group</title>
    <desc>Created with Sketch.</desc>
    <g id="Finished" stroke="none" stroke-width="1" fill="none" fill-rule="evenodd">
        <g id="W&amp;B" transform="translate(-433.000000, -321.000000)" stroke="#272525" stroke-width="15">
            <g id="Group" transform="translate(441.000000, 328.000000)">
                <path d="M20.3005607,787.387482 L548.803379,554.227728 L20.3005607,787.387482 Z M20.5756596,788.061065 C20.3966938,788.140019 20.1900304,788.053238 20.1140639,787.867233 C20.0380974,787.681228 20.1215949,787.466436 20.3005607,787.387482 L20.5756596,788.061065 Z M1116.8284,788.771745 C1117.18677,789.024969 934.691395,869.801496 569.342262,1031.10132 C568.983887,1030.8481 751.479266,950.071573 1116.8284,788.771745 Z M1117.28754,787.387482 C1117.46651,787.466436 1117.55001,787.681228 1117.47404,787.867233 C1117.39807,788.053238 1117.19141,788.140019 1117.01244,788.061065 L1117.28754,787.387482 Z M568.520941,1030.42774 C568.594628,1030.87158 385.91585,950.544107 20.4846056,789.445328 C20.4109188,789.001491 203.089697,869.328962 568.520941,1030.42774 Z" id="L4"></path>
                <path d="M568.061797,362.53531 C568.420172,362.788535 385.924793,443.565061 20.5756596,604.86489 C20.2172848,604.611665 202.712664,523.835139 568.061797,362.53531 Z M1116.8284,605.575569 C1117.18677,605.828794 934.691395,686.605321 569.342262,847.905149 C568.983887,847.651924 751.479266,766.875398 1116.8284,605.575569 Z M1117.01244,604.86489 L910.690991,513.841989 C1048.23863,574.902403 1117.01244,605.24337 1117.01244,604.86489 Z M697.484583,419.754956 L567.568028,361.781697 M568.520941,847.231566 C568.594628,847.675403 385.91585,767.347932 20.4846056,606.249153 C20.4109188,605.805315 203.089697,686.132786 568.520941,847.231566 Z" id="L3"></path>
                <path d="M568.062324,179.339135 C568.420172,179.59236 385.924793,260.368886 20.5751329,421.668714 C20.2172848,421.41549 202.712664,340.638963 568.062324,179.339135 Z M1116.82893,422.379394 C1117.18677,422.632619 934.691395,503.409145 569.341735,664.708974 C568.983887,664.455749 751.479266,583.679222 1116.82893,422.379394 Z M903.195747,327.339135 C828.985849,294.599931 717.671003,245.491126 569.251208,180.012718 M568.520963,664.037219 C568.594628,664.479228 385.91585,584.151757 20.4845833,423.051148 C20.4109188,422.60914 203.089697,502.936611 568.520963,664.037219 Z" id="L2"></path>
                <path d="M20.049795,238.180945 L568.044719,0.72345492 C568.228749,0.643711056 568.44258,0.728251437 568.522324,0.912281146 C568.522683,0.913111006 568.52304,0.913942207 568.523393,0.914774731 C568.60252,1.10118529 568.516453,1.31652118 568.330638,1.39703829 L20.3357142,238.854528 C20.1516845,238.934272 19.9378538,238.849732 19.8581099,238.665702 C19.8577503,238.664872 19.8573938,238.664041 19.8570404,238.663208 C19.7779138,238.476798 19.8639808,238.261462 20.049795,238.180945 Z M569.072055,476.255606 L1115.37973,233.475002 C1115.56132,233.394305 1115.77394,233.476091 1115.85464,233.657676 C1115.85545,233.659514 1115.85625,233.661358 1115.85704,233.663208 C1115.93638,233.85012 1115.85121,234.066124 1115.66565,234.148585 L569.357974,476.92919 C569.176388,477.009887 568.963766,476.928101 568.883069,476.746515 C568.882253,476.744678 568.881452,476.742834 568.880666,476.740983 C568.801327,476.554072 568.8865,476.338067 569.072055,476.255606 Z M569.544463,0.720942634 L1117.28021,233.220973 C1117.46621,233.299927 1117.55299,233.514719 1117.47404,233.700724 C1117.39509,233.886729 1117.18029,233.97351 1116.99429,233.894556 L569.258543,1.394526 C569.072538,1.3155716 568.985757,1.10077964 569.064711,0.914774731 C569.143666,0.728769819 569.358458,0.641988233 569.544463,0.720942634 Z M20.7778601,243.761202 L568.513606,476.261232 C568.699611,476.340186 568.786392,476.554978 568.707438,476.740983 C568.628484,476.926988 568.413692,477.01377 568.227687,476.934815 L20.4919409,244.434785 C20.305936,244.355831 20.2191544,244.141039 20.2981088,243.955034 C20.3770632,243.769029 20.5918552,243.682247 20.7778601,243.761202 Z" id="L1"></path>
                <g id="Curves" transform="translate(0.000000, 234.040259)">
                    <path d="M1117.21595,0.181048601 C1103.89827,26.3956196 1097.23943,57.9350254 1097.23943,94.7992659 C1097.23943,131.663506 1103.89827,163.202912 1117.21595,189.417483" id="Curve"></path>
                    <path d="M1116.33463,370.171043 C1103.01695,395.548868 1096.35812,426.081564 1096.35812,461.76913 C1096.35812,497.456697 1103.01695,527.989393 1116.33463,553.367218" id="Curve"></path>
                    <path d="M910.69404,282.236879 C897.376364,307.614704 890.717526,338.1474 890.717526,373.834966 C890.717526,409.522533 897.376364,440.055229 910.69404,465.433054" id="Curve"></path>
                    <path d="M19.9765144,5 C6.65883814,30.3778252 0,60.910521 0,96.5980877 C1.84819886e-16,132.285654 6.65883814,162.81835 19.9765144,188.196175" id="Curve-Copy"></path>
                    <path d="M568.743117,242 C555.425441,268.214571 548.766602,299.753977 548.766602,336.618217 C548.766602,373.482458 555.425441,405.021864 568.743117,431.236435" id="Curve-Copy-4"></path>
                    <path d="M19.9765144,188.196175 C6.65883814,213.574 0,244.106696 0,279.794263 C1.84819886e-16,315.48183 6.65883814,346.014525 19.9765144,371.392351" id="Curve-Copy-2"></path>
                    <path d="M568.743117,431.236435 C555.425441,456.61426 548.766602,487.146956 548.766602,522.834522 C548.766602,558.522089 555.425441,589.054785 568.743117,614.43261" id="Curve-Copy-5"></path>
                    <path d="M19.9765144,371.392351 C6.65883814,396.770176 0,427.302872 0,462.990438 C1.84819886e-16,498.678005 6.65883814,529.210701 19.9765144,554.588526" id="Curve-Copy-3"></path>
                    <path d="M568.743117,614.43261 C555.425441,639.810435 548.766602,670.343131 548.766602,706.030697 C548.766602,741.718264 555.425441,772.25096 568.743117,797.628785" id="Curve-Copy-6"></path>
                </g>
            </g>
        </g>
    </g>
</svg>